<svg width="120" height="100" viewBox="0 0 120 100" fill="none" xmlns="http://www.w3.org/2000/svg">
<g id="triangles">
<rect width="120" height="100" fill="white"/>
<g id="light">
<path id="light-1" opacity="0.7" d="M46 51.768C47.3333 52.5378 47.3333 54.4623 46 55.2321L19.75 70.3875C18.4167 71.1573 16.75 70.195 16.75 68.6554V38.3445C16.75 36.8049 18.4167 35.8427 19.75 36.6125L46 51.768Z" fill="#76C0E9"/>
</g>
<g id="dark">
<path id="dark-2" opacity="0.7" d="M64 51.768C65.3333 52.5378 65.3333 54.4623 64 55.2321L37.75 70.3875C36.4167 71.1573 34.75 70.195 34.75 68.6554V38.3445C34.75 36.8049 36.4167 35.8427 37.75 36.6125L64 51.768Z" fill="#9B7EEC"/>
<path id="dark-1" opacity="0.7" d="M46 51.768C47.3333 52.5378 47.3333 54.4623 46 55.2321L19.75 70.3875C18.4167 71.1573 16.75 70.195 16.75 68.6554V38.3445C16.75 36.8049 18.4167 35.8427 19.75 36.6125L46 51.768Z" fill="#6E3EF5"/>
</g>
</g>
</svg>
